{"title":"The Wolverine (2013) BDRip 1080p","uid":9168346,"size":13868177019,"categoryP":"video","categoryS":"hd___movies","magnet":"?xt=urn:btih:80f65bf1e4b3488ec02cb4ae6f1b785069ab4f70&amp;dn=The+Wolverine+%282013%29+BDRip+1080p&amp;tr=udp%3A%2F%2Ftracker.openbittorrent.com%3A80&amp;tr=udp%3A%2F%2Fopen.demonii.com%3A1337&amp;tr=udp%3A%2F%2Ftracker.coppersurfer.tk%3A6969&amp;tr=udp%3A%2F%2Fexodus.desync.com%3A6969","seeders":1,"leechers":0,"uploader":"yfjfrj","files":1,"time":1384027202,"description":"General\nUnique ID                                : 185298140961038777834359416662521640196 (0x8B671FB36DC1530FB540629CB55D7504)\nComplete name                            : D:moviesThe.Wolverine.2013.Extended.1080p.BluRay.DTS.x264-NTb.mkv\nFormat                                   : Matroska\nFormat version                           : Version 2\nFile size                                : 12.9 GiB\nDuration                                 : 2h 18mn\nOverall bit rate                         : 13.4 Mbps\nEncoded date                             : UTC 2013-11-08 06:12:11\nWriting application                      : mkvmerge v6.3.0 ('You can't stop me!') built on Jun 28 2013 20:09:41\nWriting library                          : libebml v1.3.0 + libmatroska v1.4.0\n\nVideo\nID                                       : 1\nFormat                                   : AVC\nFormat/Info                              : Advanced Video Codec\nFormat profile                           : &lt;a class=&quot;__cf_email__&quot; href=&quot;/cdn-cgi/l/email-protection&quot; data-cfemail=&quot;2d65444a456d6119031d&quot;&gt;[email&amp;#160;protected]&lt;/a&gt;&lt;script cf-hash='f9e31' type=&quot;text/javascript&quot;&gt;\n/* &lt;![CDATA[ */!function(){try{var t=&quot;currentScript&quot;in document?document.currentScript:function(){for(var t=document.getElementsByTagName(&quot;script&quot;),e=t.length;e--;)if(t[e].getAttribute(&quot;cf-hash&quot;))return t[e]}();if(t&amp;&amp;t.previousSibling){var e,r,n,i,c=t.previousSibling,a=c.getAttribute(&quot;data-cfemail&quot;);if(a){for(e=&quot;&quot;,r=parseInt(a.substr(0,2),16),n=2;a.length-n;n+=2)i=parseInt(a.substr(n,2),16)^r,e+=String.fromCharCode(i);e=document.createTextNode(e),c.parentNode.replaceChild(e,c)}}}catch(u){}}();/* ]]&gt; */&lt;/script&gt;\nFormat settings, CABAC                   : Yes\nFormat settings, ReFrames                : 5 frames\nCodec ID                                 : V_MPEG4/ISO/AVC\nDuration                                 : 2h 18mn\nBit rate                                 : 11.2 Mbps\nWidth                                    : 1 920 pixels\nHeight                                   : 798 pixels\nDisplay aspect ratio                     : 2.40:1\nFrame rate mode                          : Constant\nFrame rate                               : 23.976 fps\nColor space                              : YUV\nChroma subsampling                       : 4:2:0\nBit depth                                : 8 bits\nScan type                                : Progressive\nBits/(Pixel*Frame)                       : 0.304\nStream size                              : 10.8 GiB (84%)\nWriting library                          : x264 core 140 r2377kMod 1ca7bb9\nEncoding settings                        : cabac=1 // deblock=1:-3:-3 / analyse=0x3:0x133 / me=umh / subme=10 / psy=1 / fade_compensate=0.00 / psy_rd=1.07:0.00 // me_range=48 / chroma_me=1 / trellis=2 / 8x8dct=1 / cqm=0 / deadzone=21,11 / fast_pskip=0 / chroma_qp_offset=-2 / threads=12 / lookahead_threads=2 / sliced_threads=0 / nr=0 / decimate=1 / interlaced=0 / bluray_compat=0 / constrained_intra=0 / fgo=0 / bframes=7 / b_pyramid=2 / b_adapt=2 / b_bias=0 / direct=3 / weightb=1 / open_gop=0 / weightp=2 / keyint=250 / keyint_min=23 / scenecut=40 / intra_refresh=0 / rc=crf / mbtree=0 / crf=16.5000 / qcomp=0.60 / qpmin=0 / qpmax=69 / qpstep=4 / ip_ratio=1.30 / pb_ratio=1.20 / aq=1:0.85\nLanguage                                 : English\nDefault                                  : Yes\nForced                                   : No\n\nAudio #1\nID                                       : 2\nFormat                                   : AC-3\nFormat/Info                              : Audio Coding 3\nMode extension                           : CM (complete main)\nFormat settings, Endianness              : Big\nCodec ID                                 : A_AC3\nDuration                                 : 2h 18mn\nBit rate mode                            : Constant\nBit rate                                 : 192 Kbps\nChannel(s)                               : 2 channels\nChannel positions                        : Front: L R\nSampling rate                            : 48.0 KHz\nBit depth                                : 16 bits\nCompression mode                         : Lossy\nStream size                              : 190 MiB (1%)\nLanguage                                 : Russian\nDefault                                  : Yes\nForced                                   : No\n\nAudio #2\nID                                       : 3\nFormat                                   : DTS\nFormat/Info                              : Digital Theater Systems\nFormat profile                           : ES\nMode                                     : 16\nFormat settings, Endianness              : Big\nCodec ID                                 : A_DTS\nDuration                                 : 2h 18mn\nBit rate mode                            : Constant\nBit rate                                 : 1 509 Kbps\nChannel(s)                               : 6 channels\nChannel positions                        : Front: L C R, Side: L R, LFE\nSampling rate                            : 48.0 KHz\nBit depth                                : 24 bits\nCompression mode                         : Lossy\nStream size                              : 1.46 GiB (11%)\nLanguage                                 : English\nDefault                                  : No\nForced                                   : No\n\nAudio #3\nID                                       : 4\nFormat                                   : AC-3\nFormat/Info                              : Audio Coding 3\nMode extension                           : CM (complete main)\nFormat settings, Endianness              : Big\nCodec ID                                 : A_AC3\nDuration                                 : 2h 18mn\nBit rate mode                            : Constant\nBit rate                                 : 224 Kbps\nChannel(s)                               : 2 channels\nChannel positions                        : Front: L R\nSampling rate                            : 48.0 KHz\nBit depth                                : 16 bits\nCompression mode                         : Lossy\nStream size                              : 221 MiB (2%)\nTitle                                    : Director's Commentary\nLanguage                                 : English\nDefault                                  : No\nForced                                   : No\n\nText #1\nID                                       : 5\nFormat                                   : UTF-8\nCodec ID                                 : S_TEXT/UTF8\nCodec ID/Info                            : UTF-8 Plain Text\nLanguage                                 : Russian\nDefault                                  : Yes\nForced                                   : No\n\nText #2\nID                                       : 6\nFormat                                   : UTF-8\nCodec ID                                 : S_TEXT/UTF8\nCodec ID/Info                            : UTF-8 Plain Text\nTitle                                    : Foreign Parts\nLanguage                                 : English\nDefault                                  : No\nForced                                   : No\n\nText #3\nID                                       : 7\nFormat                                   : UTF-8\nCodec ID                                 : S_TEXT/UTF8\nCodec ID/Info                            : UTF-8 Plain Text\nLanguage                                 : English\nDefault                                  : No\nForced                                   : No\n\nText #4\nID                                       : 8\nFormat                                   : UTF-8\nCodec ID                                 : S_TEXT/UTF8\nCodec ID/Info                            : UTF-8 Plain Text\nTitle                                    : SDH\nLanguage                                 : English\nDefault                                  : No\nForced                                   : No\n\nMenu\n00:00:00.000                             : en:00:00:00.000\n00:05:03.720                             : en:00:05:03.720\n00:07:39.793                             : en:00:07:39.793\n00:08:40.562                             : en:00:08:40.562\n00:10:24.374                             : en:00:10:24.374\n00:13:55.668                             : en:00:13:55.668\n00:16:48.174                             : en:00:16:48.174\n00:20:32.648                             : en:00:20:32.648\n00:23:36.498                             : en:00:23:36.498\n00:29:13.585                             : en:00:29:13.585\n00:33:42.771                             : en:00:33:42.771\n00:35:14.779                             : en:00:35:14.779\n00:38:36.522                             : en:00:38:36.522\n00:43:04.957                             : en:00:43:04.957\n00:47:55.080                             : en:00:47:55.080\n00:49:31.844                             : en:00:49:31.844\n00:52:23.098                             : en:00:52:23.098\n00:59:32.318                             : en:00:59:32.318\n01:01:31.354                             : en:01:01:31.354\n01:07:00.516                             : en:01:07:00.516\n01:13:10.261                             : en:01:13:10.261\n01:18:52.227                             : en:01:18:52.227\n01:23:40.473                             : en:01:23:40.473\n01:26:47.160                             : en:01:26:47.160\n01:29:50.927                             : en:01:29:50.927\n01:35:19.380                             : en:01:35:19.380\n01:38:28.194                             : en:01:38:28.194\n01:41:43.639                             : en:01:41:43.639\n01:48:33.006                             : en:01:48:33.006\n01:52:05.969                             : en:01:52:05.969\n01:54:56.264                             : en:01:54:56.264\n01:58:03.493                             : en:01:58:03.493\n02:03:01.999                             : en:02:03:01.999\n02:04:57.406                             : en:02:04:57.406\n02:07:46.700                             : en:02:07:46.700\n02:09:17.374                             : en:02:09:17.374\n\n","torrent":{"xt":"urn:btih:80f65bf1e4b3488ec02cb4ae6f1b785069ab4f70","amp;dn":"The+Wolverine+%282013%29+BDRip+1080p","amp;tr":["udp%3A%2F%2Ftracker.openbittorrent.com%3A80","udp%3A%2F%2Fopen.demonii.com%3A1337","udp%3A%2F%2Ftracker.coppersurfer.tk%3A6969","udp%3A%2F%2Fexodus.desync.com%3A6969"],"infoHash":"80f65bf1e4b3488ec02cb4ae6f1b785069ab4f70","infoHashBuffer":{"type":"Buffer","data":[128,246,91,241,228,179,72,142,192,44,180,174,111,27,120,80,105,171,79,112]},"announce":[],"urlList":[]}}